<mxfile host="app.diagrams.net" modified="2023-06-07T19:07:02.990Z" agent="Mozilla/5.0 (X11; Linux x86_64; rv:109.0) Gecko/20100101 Firefox/113.0" etag="LAlLwrDxGam1DE2jtO79" version="21.3.7" type="device">
  <diagram name="Page-1" id="2YBvvXClWsGukQMizWep">
    <mxGraphModel dx="581" dy="657" grid="1" gridSize="10" guides="1" tooltips="1" connect="1" arrows="1" fold="1" page="1" pageScale="1" pageWidth="850" pageHeight="1100" math="0" shadow="0">
      <root>
        <mxCell id="0" />
        <mxCell id="1" parent="0" />
        <mxCell id="aM9ryv3xv72pqoxQDRHE-7" value="Lanzar Script" style="html=1;verticalAlign=bottom;endArrow=block;edgeStyle=elbowEdgeStyle;elbow=vertical;curved=0;rounded=0;" parent="1" source="aM9ryv3xv72pqoxQDRHE-2" target="2NgsDoCjIwmhMlPLntnu-11" edge="1">
          <mxGeometry relative="1" as="geometry">
            <mxPoint x="115" y="130" as="sourcePoint" />
            <Array as="points">
              <mxPoint x="100" y="120" />
            </Array>
          </mxGeometry>
        </mxCell>
        <mxCell id="2NgsDoCjIwmhMlPLntnu-3" value="" style="shape=umlLifeline;perimeter=lifelinePerimeter;whiteSpace=wrap;html=1;container=1;dropTarget=0;collapsible=0;recursiveResize=0;outlineConnect=0;portConstraint=eastwest;newEdgeStyle={&quot;edgeStyle&quot;:&quot;elbowEdgeStyle&quot;,&quot;elbow&quot;:&quot;vertical&quot;,&quot;curved&quot;:0,&quot;rounded&quot;:0};participant=umlActor;" parent="1" vertex="1">
          <mxGeometry x="70" y="40" width="20" height="710" as="geometry" />
        </mxCell>
        <mxCell id="aM9ryv3xv72pqoxQDRHE-2" value="" style="html=1;points=[];perimeter=orthogonalPerimeter;outlineConnect=0;targetShapes=umlLifeline;portConstraint=eastwest;newEdgeStyle={&quot;edgeStyle&quot;:&quot;elbowEdgeStyle&quot;,&quot;elbow&quot;:&quot;vertical&quot;,&quot;curved&quot;:0,&quot;rounded&quot;:0};" parent="2NgsDoCjIwmhMlPLntnu-3" vertex="1">
          <mxGeometry x="5" y="70" width="10" height="620" as="geometry" />
        </mxCell>
        <mxCell id="2NgsDoCjIwmhMlPLntnu-10" value="&lt;div&gt;Script de&lt;/div&gt;&lt;div&gt;entrenamiento&lt;br&gt;&lt;/div&gt;" style="shape=umlLifeline;perimeter=lifelinePerimeter;whiteSpace=wrap;html=1;container=1;dropTarget=0;collapsible=0;recursiveResize=0;outlineConnect=0;portConstraint=eastwest;newEdgeStyle={&quot;edgeStyle&quot;:&quot;elbowEdgeStyle&quot;,&quot;elbow&quot;:&quot;vertical&quot;,&quot;curved&quot;:0,&quot;rounded&quot;:0};" parent="1" vertex="1">
          <mxGeometry x="140" y="40" width="100" height="710" as="geometry" />
        </mxCell>
        <mxCell id="2NgsDoCjIwmhMlPLntnu-11" value="" style="html=1;points=[];perimeter=orthogonalPerimeter;outlineConnect=0;targetShapes=umlLifeline;portConstraint=eastwest;newEdgeStyle={&quot;edgeStyle&quot;:&quot;elbowEdgeStyle&quot;,&quot;elbow&quot;:&quot;vertical&quot;,&quot;curved&quot;:0,&quot;rounded&quot;:0};" parent="2NgsDoCjIwmhMlPLntnu-10" vertex="1">
          <mxGeometry x="45" y="70" width="10" height="610" as="geometry" />
        </mxCell>
        <mxCell id="2NgsDoCjIwmhMlPLntnu-16" value="Librería Paddel" style="shape=umlLifeline;perimeter=lifelinePerimeter;whiteSpace=wrap;html=1;container=1;dropTarget=0;collapsible=0;recursiveResize=0;outlineConnect=0;portConstraint=eastwest;newEdgeStyle={&quot;edgeStyle&quot;:&quot;elbowEdgeStyle&quot;,&quot;elbow&quot;:&quot;vertical&quot;,&quot;curved&quot;:0,&quot;rounded&quot;:0};" parent="1" vertex="1">
          <mxGeometry x="280" y="40" width="100" height="690" as="geometry" />
        </mxCell>
        <mxCell id="2NgsDoCjIwmhMlPLntnu-18" value="" style="html=1;points=[];perimeter=orthogonalPerimeter;outlineConnect=0;targetShapes=umlLifeline;portConstraint=eastwest;newEdgeStyle={&quot;edgeStyle&quot;:&quot;elbowEdgeStyle&quot;,&quot;elbow&quot;:&quot;vertical&quot;,&quot;curved&quot;:0,&quot;rounded&quot;:0};" parent="2NgsDoCjIwmhMlPLntnu-16" vertex="1">
          <mxGeometry x="45" y="570" width="10" height="60" as="geometry" />
        </mxCell>
        <mxCell id="2NgsDoCjIwmhMlPLntnu-24" value="&lt;div&gt;Prompt directorio&lt;/div&gt;&lt;div&gt;de vídeos&lt;br&gt;&lt;/div&gt;" style="html=1;verticalAlign=bottom;endArrow=open;dashed=1;endSize=8;edgeStyle=elbowEdgeStyle;elbow=vertical;curved=0;rounded=0;" parent="1" source="2NgsDoCjIwmhMlPLntnu-11" target="aM9ryv3xv72pqoxQDRHE-2" edge="1">
          <mxGeometry relative="1" as="geometry">
            <mxPoint x="140" y="190" as="sourcePoint" />
            <mxPoint x="60" y="190" as="targetPoint" />
            <Array as="points">
              <mxPoint x="140" y="160" />
            </Array>
          </mxGeometry>
        </mxCell>
        <mxCell id="2NgsDoCjIwmhMlPLntnu-25" value="&lt;div&gt;Directorio de&lt;/div&gt;&lt;div&gt;vídeos&lt;br&gt;&lt;/div&gt;" style="html=1;verticalAlign=bottom;endArrow=block;edgeStyle=elbowEdgeStyle;elbow=vertical;curved=0;rounded=0;" parent="1" source="aM9ryv3xv72pqoxQDRHE-2" target="2NgsDoCjIwmhMlPLntnu-11" edge="1">
          <mxGeometry width="80" relative="1" as="geometry">
            <mxPoint x="90" y="240" as="sourcePoint" />
            <mxPoint x="170" y="240" as="targetPoint" />
            <Array as="points">
              <mxPoint x="130" y="200" />
            </Array>
          </mxGeometry>
        </mxCell>
        <mxCell id="2NgsDoCjIwmhMlPLntnu-30" value="&lt;div&gt;Prompt archivo&lt;/div&gt;&lt;div&gt;de salida&lt;br&gt;&lt;/div&gt;" style="html=1;verticalAlign=bottom;endArrow=open;dashed=1;endSize=8;edgeStyle=elbowEdgeStyle;elbow=vertical;curved=0;rounded=0;" parent="1" source="2NgsDoCjIwmhMlPLntnu-11" target="aM9ryv3xv72pqoxQDRHE-2" edge="1">
          <mxGeometry relative="1" as="geometry">
            <mxPoint x="580" y="310" as="sourcePoint" />
            <mxPoint x="500" y="310" as="targetPoint" />
            <Array as="points">
              <mxPoint x="135" y="320" />
            </Array>
          </mxGeometry>
        </mxCell>
        <mxCell id="uq62i_CfbmSPbAQ5rVHD-2" value="&lt;div&gt;Prompt directorio&lt;/div&gt;&lt;div&gt;de caché&lt;br&gt;&lt;/div&gt;" style="html=1;verticalAlign=bottom;endArrow=open;dashed=1;endSize=8;edgeStyle=elbowEdgeStyle;elbow=vertical;curved=0;rounded=0;" edge="1" parent="1" source="2NgsDoCjIwmhMlPLntnu-11" target="aM9ryv3xv72pqoxQDRHE-2">
          <mxGeometry relative="1" as="geometry">
            <mxPoint x="195" y="170" as="sourcePoint" />
            <mxPoint x="95" y="170" as="targetPoint" />
            <Array as="points">
              <mxPoint x="140" y="240" />
            </Array>
          </mxGeometry>
        </mxCell>
        <mxCell id="uq62i_CfbmSPbAQ5rVHD-3" value="&lt;div&gt;Directorio de&lt;/div&gt;&lt;div&gt;caché&lt;br&gt;&lt;/div&gt;" style="html=1;verticalAlign=bottom;endArrow=block;edgeStyle=elbowEdgeStyle;elbow=vertical;curved=0;rounded=0;" edge="1" parent="1" source="aM9ryv3xv72pqoxQDRHE-2" target="2NgsDoCjIwmhMlPLntnu-11">
          <mxGeometry width="80" relative="1" as="geometry">
            <mxPoint x="95" y="210" as="sourcePoint" />
            <mxPoint x="195" y="210" as="targetPoint" />
            <Array as="points">
              <mxPoint x="140" y="280" />
            </Array>
          </mxGeometry>
        </mxCell>
        <mxCell id="uq62i_CfbmSPbAQ5rVHD-4" value="&lt;div&gt;Archivo de&lt;/div&gt;&lt;div&gt;salida&lt;br&gt;&lt;/div&gt;" style="html=1;verticalAlign=bottom;endArrow=block;edgeStyle=elbowEdgeStyle;elbow=vertical;curved=0;rounded=0;" edge="1" parent="1" source="aM9ryv3xv72pqoxQDRHE-2" target="2NgsDoCjIwmhMlPLntnu-11">
          <mxGeometry width="80" relative="1" as="geometry">
            <mxPoint x="95" y="290" as="sourcePoint" />
            <mxPoint x="195" y="290" as="targetPoint" />
            <Array as="points">
              <mxPoint x="140" y="360" />
            </Array>
          </mxGeometry>
        </mxCell>
        <mxCell id="uq62i_CfbmSPbAQ5rVHD-5" value="&lt;div&gt;Prompt algoritmo&lt;/div&gt;&lt;div&gt;a utilizar&lt;br&gt;&lt;/div&gt;" style="html=1;verticalAlign=bottom;endArrow=open;dashed=1;endSize=8;edgeStyle=elbowEdgeStyle;elbow=vertical;curved=0;rounded=0;" edge="1" parent="1" source="2NgsDoCjIwmhMlPLntnu-11" target="aM9ryv3xv72pqoxQDRHE-2">
          <mxGeometry relative="1" as="geometry">
            <mxPoint x="195" y="330" as="sourcePoint" />
            <mxPoint x="95" y="330" as="targetPoint" />
            <Array as="points">
              <mxPoint x="150" y="480" />
            </Array>
          </mxGeometry>
        </mxCell>
        <mxCell id="uq62i_CfbmSPbAQ5rVHD-6" value="&lt;div&gt;Algoritmo a&lt;/div&gt;&lt;div&gt;utilizar&lt;br&gt;&lt;/div&gt;" style="html=1;verticalAlign=bottom;endArrow=block;edgeStyle=elbowEdgeStyle;elbow=vertical;curved=0;rounded=0;" edge="1" parent="1" source="aM9ryv3xv72pqoxQDRHE-2" target="2NgsDoCjIwmhMlPLntnu-11">
          <mxGeometry x="0.0057" width="80" relative="1" as="geometry">
            <mxPoint x="95" y="370" as="sourcePoint" />
            <mxPoint x="195" y="370" as="targetPoint" />
            <Array as="points">
              <mxPoint x="150" y="520" />
            </Array>
            <mxPoint as="offset" />
          </mxGeometry>
        </mxCell>
        <mxCell id="uq62i_CfbmSPbAQ5rVHD-7" value="&lt;div&gt;Prompt número&lt;/div&gt;&lt;div&gt;de características&lt;br&gt;&lt;/div&gt;" style="html=1;verticalAlign=bottom;endArrow=open;dashed=1;endSize=8;edgeStyle=elbowEdgeStyle;elbow=vertical;curved=0;rounded=0;" edge="1" parent="1" source="2NgsDoCjIwmhMlPLntnu-11" target="aM9ryv3xv72pqoxQDRHE-2">
          <mxGeometry relative="1" as="geometry">
            <mxPoint x="195" y="410" as="sourcePoint" />
            <mxPoint x="95" y="410" as="targetPoint" />
            <Array as="points">
              <mxPoint x="160" y="400" />
            </Array>
          </mxGeometry>
        </mxCell>
        <mxCell id="uq62i_CfbmSPbAQ5rVHD-9" value="&lt;div&gt;Número de&lt;/div&gt;&lt;div&gt;características&lt;br&gt;&lt;/div&gt;" style="html=1;verticalAlign=bottom;endArrow=block;edgeStyle=elbowEdgeStyle;elbow=vertical;curved=0;rounded=0;" edge="1" parent="1" source="aM9ryv3xv72pqoxQDRHE-2" target="2NgsDoCjIwmhMlPLntnu-11">
          <mxGeometry x="0.0057" width="80" relative="1" as="geometry">
            <mxPoint x="95" y="560" as="sourcePoint" />
            <mxPoint x="195" y="560" as="targetPoint" />
            <Array as="points">
              <mxPoint x="160" y="440" />
            </Array>
            <mxPoint as="offset" />
          </mxGeometry>
        </mxCell>
        <mxCell id="uq62i_CfbmSPbAQ5rVHD-10" value="&lt;div&gt;Prompts&lt;/div&gt;&lt;div&gt;parámetros&lt;/div&gt;&lt;div&gt;algoritmo usado&lt;br&gt;&lt;/div&gt;" style="html=1;verticalAlign=bottom;endArrow=open;dashed=1;endSize=8;edgeStyle=elbowEdgeStyle;elbow=vertical;curved=0;rounded=0;" edge="1" parent="1" source="2NgsDoCjIwmhMlPLntnu-11" target="aM9ryv3xv72pqoxQDRHE-2">
          <mxGeometry relative="1" as="geometry">
            <mxPoint x="195" y="490" as="sourcePoint" />
            <mxPoint x="95" y="490" as="targetPoint" />
            <Array as="points">
              <mxPoint x="150" y="570" />
            </Array>
          </mxGeometry>
        </mxCell>
        <mxCell id="uq62i_CfbmSPbAQ5rVHD-11" value="&lt;div&gt;Extraer características&lt;/div&gt;&lt;div&gt;de los vídeos&lt;br&gt;&lt;/div&gt;" style="html=1;verticalAlign=bottom;endArrow=block;edgeStyle=elbowEdgeStyle;elbow=vertical;curved=0;rounded=0;" edge="1" parent="1" target="2NgsDoCjIwmhMlPLntnu-18">
          <mxGeometry x="0.0022" width="80" relative="1" as="geometry">
            <mxPoint x="195" y="620" as="sourcePoint" />
            <mxPoint x="310" y="610" as="targetPoint" />
            <Array as="points">
              <mxPoint x="275" y="620" />
            </Array>
            <mxPoint as="offset" />
          </mxGeometry>
        </mxCell>
        <mxCell id="uq62i_CfbmSPbAQ5rVHD-12" value="&lt;div&gt;Características de &lt;br&gt;&lt;/div&gt;&lt;div&gt;los vídeos&lt;br&gt;&lt;/div&gt;" style="html=1;verticalAlign=bottom;endArrow=open;dashed=1;endSize=8;edgeStyle=elbowEdgeStyle;elbow=vertical;curved=0;rounded=0;" edge="1" parent="1" source="2NgsDoCjIwmhMlPLntnu-18">
          <mxGeometry relative="1" as="geometry">
            <mxPoint x="320" y="670" as="sourcePoint" />
            <mxPoint x="195" y="660" as="targetPoint" />
            <Array as="points">
              <mxPoint x="290" y="660" />
            </Array>
          </mxGeometry>
        </mxCell>
        <mxCell id="uq62i_CfbmSPbAQ5rVHD-13" value="&lt;div&gt;Parámetros para&lt;/div&gt;&lt;div&gt;el algoritmo&lt;br&gt;&lt;/div&gt;" style="html=1;verticalAlign=bottom;endArrow=block;edgeStyle=elbowEdgeStyle;elbow=vertical;curved=0;rounded=0;" edge="1" parent="1" source="aM9ryv3xv72pqoxQDRHE-2" target="2NgsDoCjIwmhMlPLntnu-11">
          <mxGeometry x="0.0057" width="80" relative="1" as="geometry">
            <mxPoint x="95" y="530" as="sourcePoint" />
            <mxPoint x="195" y="530" as="targetPoint" />
            <Array as="points">
              <mxPoint x="160" y="610" />
            </Array>
            <mxPoint as="offset" />
          </mxGeometry>
        </mxCell>
        <mxCell id="uq62i_CfbmSPbAQ5rVHD-15" value="&lt;div&gt;Mensaje&lt;/div&gt;&lt;div&gt;finalización&lt;/div&gt;" style="html=1;verticalAlign=bottom;endArrow=open;dashed=1;endSize=8;edgeStyle=elbowEdgeStyle;elbow=vertical;curved=0;rounded=0;" edge="1" parent="1" source="2NgsDoCjIwmhMlPLntnu-11" target="aM9ryv3xv72pqoxQDRHE-2">
          <mxGeometry relative="1" as="geometry">
            <mxPoint x="195" y="580" as="sourcePoint" />
            <mxPoint x="95" y="580" as="targetPoint" />
            <Array as="points">
              <mxPoint x="160" y="670" />
            </Array>
          </mxGeometry>
        </mxCell>
      </root>
    </mxGraphModel>
  </diagram>
</mxfile>
